<svg width="11" height="7" viewBox="0 0 11 7" fill="none" xmlns="http://www.w3.org/2000/svg">
<path d="M1.00006 0.499998C1.26586 0.498461 1.52134 0.602812 1.71006 0.789998L5.00006 4.1L8.30006 0.919998C8.6901 0.532275 9.32002 0.532275 9.71006 0.919998C9.89937 1.10776 10.0059 1.36336 10.0059 1.63C10.0059 1.89664 9.89937 2.15223 9.71006 2.34L5.71006 6.2C5.32122 6.58114 4.6989 6.58114 4.31006 6.2L0.310061 2.2C0.120749 2.01223 0.0142632 1.75664 0.0142632 1.49C0.0142632 1.22336 0.120749 0.967764 0.310061 0.779998C0.495439 0.601317 0.742592 0.501023 1.00006 0.499998V0.499998Z" fill="#68A315"/>
</svg>
