<?xml version="1.0" encoding="UTF-8"?>
<svg width="16px" height="16px" viewBox="0 0 16 16" version="1.1" xmlns="http://www.w3.org/2000/svg" xmlns:xlink="http://www.w3.org/1999/xlink">
    <title>xxxhdpi/user-svgrepo-com</title>
    <g id="🚀-HOME" stroke="none" stroke-width="1" fill="none" fill-rule="evenodd">
        <g id="Select-/-Add-To-Cart---Base-Price-Only" transform="translate(-280.000000, -1492.000000)" fill="#878787" fill-rule="nonzero">
            <g id="footer-section" transform="translate(0.000000, 1480.000000)">
                <g id="Group" transform="translate(20.000000, 8.000000)">
                    <g id="account" transform="translate(256.000000, 0.000000)">
                        <g id="user-svgrepo-com" transform="translate(4.000000, 4.000000)">
                            <path d="M13.6572597,2.34274029 C12.1456033,0.831083845 10.1366053,0 8,0 C5.86339468,0 3.85439673,0.831083845 2.34274029,2.34274029 C0.831083845,3.85439673 0,5.86339468 0,8 C0,10.1366053 0.831083845,12.1456033 2.34274029,13.6572597 C3.85439673,15.1689162 5.86339468,16 8,16 C10.1366053,16 12.1456033,15.1689162 13.6572597,13.6572597 C15.1689162,12.1456033 16,10.1366053 16,8 C16,5.86339468 15.1689162,3.85439673 13.6572597,2.34274029 Z M8,15.1165644 C4.07689162,15.1165644 0.883435583,11.9231084 0.883435583,8 C0.883435583,4.07689162 4.07689162,0.883435583 8,0.883435583 C11.9231084,0.883435583 15.1165644,4.07689162 15.1165644,8 C15.1165644,11.9231084 11.9231084,15.1165644 8,15.1165644 Z" id="Shape"></path>
                            <path d="M8,6.64867076 C9.14846626,6.64867076 10.0809816,5.71288344 10.0809816,4.56768916 C10.0809816,3.42249489 9.14846626,2.48343558 8,2.48343558 C6.85153374,2.48343558 5.9190184,3.4192229 5.9190184,4.56441718 C5.9190184,5.70961145 6.85153374,6.64867076 8,6.64867076 Z M8,3.36687117 C8.6609407,3.36687117 9.19754601,3.90347648 9.19754601,4.56441718 C9.19754601,5.22535787 8.6609407,5.76196319 8,5.76196319 C7.3390593,5.76196319 6.80245399,5.22535787 6.80245399,4.56441718 C6.80245399,3.90347648 7.3390593,3.36687117 8,3.36687117 Z" id="Shape"></path>
                            <path d="M11.1541922,9.17791411 C10.4245399,8.10470348 9.36441718,7.55828221 8,7.55828221 C6.63558282,7.55828221 5.57546012,8.10143149 4.84580777,9.17791411 C4.30265849,9.97627812 3.95582822,11.0658487 3.81840491,12.407362 C3.79222904,12.6494888 3.96891616,12.8687117 4.21104294,12.8916155 C4.45316973,12.9177914 4.67239264,12.7411043 4.69529652,12.4989775 C4.97341513,9.80613497 6.08588957,8.44171779 8,8.44171779 C9.91411043,8.44171779 11.0265849,9.80613497 11.3047035,12.4989775 C11.3276074,12.7247444 11.5206544,12.8948875 11.7431493,12.8948875 C11.7595092,12.8948875 11.7725971,12.8948875 11.7889571,12.8916155 C12.0310838,12.8654397 12.207771,12.6494888 12.1815951,12.407362 C12.0441718,11.0625767 11.6973415,9.97627812 11.1541922,9.17791411 Z" id="Path"></path>
                        </g>
                    </g>
                </g>
            </g>
        </g>
    </g>
</svg>