<?xml version="1.0" encoding="UTF-8"?>
<svg width="24px" height="24px" viewBox="0 0 24 24" version="1.1" xmlns="http://www.w3.org/2000/svg" xmlns:xlink="http://www.w3.org/1999/xlink">
    <title>xxxhdpi/search</title>
    <g id="🚀-HOME" stroke="none" stroke-width="1" fill="none" fill-rule="evenodd">
        <g id="Select-/-Add-To-Cart---Base-Price-Only" transform="translate(-148.000000, -1488.000000)" fill="#878787" fill-rule="nonzero">
            <g id="footer-section" transform="translate(0.000000, 1480.000000)">
                <g id="Group" transform="translate(20.000000, 8.000000)">
                    <g id="search" transform="translate(128.000000, 0.000000)">
                        <g id="search-svgrepo-com" transform="translate(4.000000, 4.000000)">
                            <path d="M15.8113014,14.8596041 L11.2169008,10.2619219 C12.1226541,9.17567429 12.6674187,7.78750897 12.6674187,6.27135678 C12.6674187,2.81242949 9.82873551,0 6.33699108,0 C2.84524664,0 0,2.81571121 0,6.2746385 C0,9.73356579 2.83868321,12.5459953 6.33042765,12.5459953 C7.81376269,12.5459953 9.178956,12.0373295 10.2619219,11.1873654 L14.872731,15.7981745 C15.1418316,16.0672752 15.5422008,16.0672752 15.8113014,15.7981745 C16.080402,15.5290739 16.080402,15.1287047 15.8113014,14.8596041 Z M1.34550303,6.2746385 C1.34550303,3.55737873 3.58363245,1.34878474 6.33042765,1.34878474 C9.07722285,1.34878474 11.3153523,3.55737873 11.3153523,6.2746385 C11.3153523,8.99189827 9.07722285,11.2004923 6.33042765,11.2004923 C3.58363245,11.2004923 1.34550303,8.98861655 1.34550303,6.2746385 Z" id="Shape"></path>
                        </g>
                    </g>
                </g>
            </g>
        </g>
    </g>
</svg>