<?xml version="1.0" encoding="UTF-8"?>
<svg width="7px" height="9px" viewBox="0 0 7 9" version="1.1" xmlns="http://www.w3.org/2000/svg" xmlns:xlink="http://www.w3.org/1999/xlink">
    <title>xxxhdpi/shopping-bag-svgrepo-com</title>
    <g id="🚀-HOME" stroke="none" stroke-width="1" fill="none" fill-rule="evenodd">
        <g id="Select-/-Add-To-Cart---Pamoja-Price-Only" transform="translate(-280.000000, -27.000000)" fill="#68A315" fill-rule="nonzero">
            <g id="Group-3" transform="translate(21.000000, 20.000000)">
                <g id="shopping-cart-svgrepo-com-(1)" transform="translate(255.000000, 0.000000)">
                    <g id="shopping-bag-svgrepo-com" transform="translate(4.000000, 7.000000)">
                        <path d="M5.23007765,2.22149571 L5.23007765,1.91806293 C5.23007765,0.860645689 4.36943196,0 3.31201471,0 C2.25459747,0 1.39395178,0.860645689 1.39395178,1.91806293 L1.39395178,2.22149571 L0,2.22149571 L0,7.78994687 C0,8.45749898 0.542501022,9 1.21005313,9 L5.4139763,9 C6.0815284,9 6.62402942,8.45749898 6.62402942,7.78994687 L6.62402942,2.22149571 L5.23007765,2.22149571 Z M1.86657131,3.63383735 C1.64221496,3.63383735 1.46015529,3.45177769 1.46015529,3.22742133 C1.46015529,3.00306498 1.64221496,2.82100531 1.86657131,2.82100531 C2.09092767,2.82100531 2.27298733,3.00306498 2.27298733,3.22742133 C2.27298733,3.45361667 2.09092767,3.63383735 1.86657131,3.63383735 Z M4.34552513,2.22149571 L2.27850429,2.22149571 L2.27850429,1.91806293 C2.27850429,1.34797711 2.74192889,0.884552513 3.31201471,0.884552513 C3.88210053,0.884552513 4.34552513,1.34797711 4.34552513,1.91806293 L4.34552513,2.22149571 Z M4.75745811,3.63383735 C4.53310176,3.63383735 4.35104209,3.45177769 4.35104209,3.22742133 C4.35104209,3.00306498 4.53310176,2.82100531 4.75745811,2.82100531 C4.98181447,2.82100531 5.16387413,3.00306498 5.16387413,3.22742133 C5.16203515,3.45361667 4.98181447,3.63383735 4.75745811,3.63383735 Z" id="Shape"></path>
                    </g>
                </g>
            </g>
        </g>
    </g>
</svg>