<?xml version="1.0" encoding="UTF-8"?>
<svg width="13px" height="14px" viewBox="0 0 13 14" version="1.1" xmlns="http://www.w3.org/2000/svg" xmlns:xlink="http://www.w3.org/1999/xlink">
    <title>xxxhdpi/add-to-shopping-bag-svgrepo-com</title>
    <g id="🚀-HOME" stroke="none" stroke-width="1" fill="none" fill-rule="evenodd">
        <g id="Select-/-Add-To-Cart---Base-Price-Only" transform="translate(-273.000000, -483.000000)" fill="#FFF" fill-rule="nonzero">
            <g id="items-list-section" transform="translate(0.000000, 240.000000)">
                <g id="row-1" transform="translate(20.000000, 80.000000)">
                    <g id="item-1" transform="translate(142.000000, 0.000000)">
                        <g id="price-add-to-cart" transform="translate(7.000000, 160.000000)">
                            <g id="add-to-shopping-bag-svgrepo-com" transform="translate(104.000000, 3.000000)">
                                <path d="M4.84985283,1.07777701 L4.97537793,1.07777701 C5.88480617,1.07777701 6.62599342,1.81221019 6.63680711,2.71919547 L7.71465597,2.71919547 C7.70369857,1.21795987 6.47905648,0 4.97537793,0 L4.84985283,0 C3.3460665,0 2.12142441,1.21795987 2.11057479,2.71919547 L3.18838772,2.71919547 C3.19916549,1.81221019 3.94031682,1.07777701 4.84985283,1.07777701 Z" id="Path"></path>
                                <path d="M9.82523076,7.36901288 L9.82523076,3.31197282 C9.82523076,3.19295031 9.72866194,3.09641742 9.60967536,3.09641742 L0.215555402,3.09641742 C0.0964610422,3.09641742 0,3.19295031 0,3.31197282 L0,11.3546682 C0,11.9489544 0.48345484,12.4324452 1.07777701,12.4324452 L6.57709827,12.4324452 C7.16603155,13.3730571 8.21136747,14 9.40058662,14 C11.2361846,14 12.7295524,12.5066322 12.7295524,10.6710342 C12.7295524,8.97928359 11.4610448,7.5782094 9.82523076,7.36901288 Z M2.56392372,5.17404816 C2.22223249,5.17404816 1.9442738,4.89608947 1.9442738,4.55439823 C1.9442738,4.21267107 2.22223249,3.93471237 2.56392372,3.93471237 C2.90557904,3.93471237 3.1835018,4.21267107 3.1835018,4.55439823 C3.1835018,4.89605354 2.90557904,5.17404816 2.56392372,5.17404816 Z M6.64165711,4.5543623 C6.64165711,4.21263514 6.91957987,3.93467645 7.26123518,3.93467645 C7.60296235,3.93467645 7.88095696,4.21263514 7.88095696,4.5543623 C7.88095696,4.89605354 7.60296235,5.17401223 7.26123518,5.17401223 C6.91957987,5.17404816 6.64165711,4.89605354 6.64165711,4.5543623 Z M9.35266147,13.1018525 C8.0101465,13.1018525 6.9218432,12.0135492 6.9218432,10.6710342 C6.9218432,9.32851926 8.0101465,8.24021597 9.35266147,8.24021597 C10.6951764,8.24021597 11.7834797,9.32851926 11.7834797,10.6710342 C11.7834797,12.0135492 10.6951764,13.1018525 9.35266147,13.1018525 Z" id="Shape"></path>
                                <path d="M10.2448453,10.0817058 L9.94202586,10.0817058 L9.94202586,9.77888635 C9.94202586,9.45336177 9.67815012,9.18955788 9.35269739,9.18955788 C9.02720874,9.18955788 8.76336893,9.45339769 8.76336893,9.77888635 L8.76336893,10.0817058 L8.46054951,10.0817058 C8.13502493,10.0817058 7.87122104,10.3455815 7.87122104,10.6710342 C7.87122104,10.996487 8.13506086,11.2603627 8.46054951,11.2603627 L8.76336893,11.2603627 L8.76336893,11.5631821 C8.76336893,11.8886348 9.02724466,12.1525106 9.35269739,12.1525106 C9.67818605,12.1525106 9.94202586,11.8885989 9.94202586,11.5631821 L9.94202586,11.2603627 L10.2448453,11.2603627 C10.570298,11.2603627 10.8341737,10.996487 10.8341737,10.6710342 C10.8341737,10.3455815 10.5702621,10.0817058 10.2448453,10.0817058 Z" id="Path"></path>
                            </g>
                        </g>
                    </g>
                </g>
            </g>
        </g>
    </g>
</svg>