<?xml version="1.0" encoding="UTF-8"?>
<svg width="10px" height="12px" viewBox="0 0 10 12" version="1.1" xmlns="http://www.w3.org/2000/svg" xmlns:xlink="http://www.w3.org/1999/xlink">
    <title>xxxhdpi/trash-svgrepo-com</title>
    <g id="🚀-SEARCH---PRODUCT-DETAILS" stroke="none" stroke-width="1" fill="none" fill-rule="evenodd">
        <g id="Header-cart-summary-popup" transform="translate(-265.000000, -124.000000)" fill="#F24750" fill-rule="nonzero">
            <g id="Group-3" transform="translate(100.000000, 60.000000)">
                <g id="Group-4" transform="translate(20.000000, 20.000000)">
                    <g id="Group-6" transform="translate(60.000000, 40.000000)">
                        <g id="trash-svgrepo-com" transform="translate(85.000000, 4.000000)">
                            <path d="M9,2.25 L7.875,2.25 L7.875,0.75 C7.875,0.3358125 7.5391875,0 7.125,0 L2.625,0 C2.2108125,0 1.875,0.3358125 1.875,0.75 L1.875,2.25 L0.75,2.25 C0.3358125,2.25 0,2.5858125 0,3 L0,3.75 L9.75,3.75 L9.75,3 C9.75,2.5858125 9.4141875,2.25 9,2.25 Z M3.375,2.25 L3.375,1.5 L6.375,1.5 L6.375,2.25 L3.375,2.25 Z" id="Shape"></path>
                            <path d="M0.75,11.2500938 C0.75,11.6642813 1.08571875,12 1.49990625,12 L8.2501875,12 C8.66428125,12 9,11.6642813 9,11.2501875 L9,11.2500937 L9,4.5 L0.75,4.5 L0.75,11.2500938 Z M6.375,6.375 C6.375,6.16790625 6.54290625,6 6.75,6 C6.95709375,6 7.125,6.16790625 7.125,6.375 L7.125,10.125 C7.125,10.3320938 6.95709375,10.5 6.75,10.5 C6.54290625,10.5 6.375,10.3320938 6.375,10.125 L6.375,6.375 Z M4.5,6.375 C4.5,6.16790625 4.66790625,6 4.875,6 C5.08209375,6 5.25,6.16790625 5.25,6.375 L5.25,10.125 C5.25,10.3320938 5.08209375,10.5 4.875,10.5 C4.66790625,10.5 4.5,10.3320938 4.5,10.125 L4.5,6.375 Z M2.625,6.375 C2.625,6.16790625 2.79290625,6 3,6 C3.20709375,6 3.375,6.16790625 3.375,6.375 L3.375,10.125 C3.375,10.3320938 3.20709375,10.5 3,10.5 C2.79290625,10.5 2.625,10.3320938 2.625,10.125 L2.625,6.375 Z" id="Shape"></path>
                        </g>
                    </g>
                </g>
            </g>
        </g>
    </g>
</svg>