<svg width="80" height="80" viewBox="0 0 80 80" fill="none" xmlns="http://www.w3.org/2000/svg">
<g opacity="0.5">
<path fill-rule="evenodd" clip-rule="evenodd" d="M55.6827 13.1351C52.4285 9.82508 47.836 8 42.4771 8C37.1183 8 32.5259 9.82508 29.2718 13.1351C26.0202 16.4425 24.2353 21.0995 24.2353 26.5263C24.2353 33.8324 27.4163 38.5415 31.3533 41.3683C32.1184 41.9173 32.9091 42.3939 33.7068 42.8049C29.3071 44.0138 25.7347 46.1214 22.8261 48.7357C18.2269 52.8691 15.3764 58.1871 13.4559 62.9491C13.108 63.8117 13.5253 64.7929 14.388 65.1409C15.2507 65.4888 16.232 65.0715 16.5799 64.2088C18.4078 59.6763 21.0185 54.8891 25.0777 51.2408C29.0961 47.6295 34.6223 45.0526 42.4771 45.0526C49.8203 45.0526 55.1215 47.3044 59.0565 50.5361C63.0245 53.7947 65.6967 58.1275 67.6113 62.4108C68.8886 65.2685 66.6469 68.6316 63.1279 68.6316H24.2637C23.3335 68.6316 22.5795 69.3858 22.5795 70.3158C22.5795 71.2458 23.3335 72 24.2637 72H63.1279C68.6929 72 73.116 66.4717 70.6867 61.0365C68.6538 56.4891 65.7139 51.6443 61.1944 47.933C58.5118 45.73 55.3051 43.9535 51.4651 42.8655C53.5188 41.73 55.2071 40.223 56.5504 38.5149C59.457 34.8194 60.7192 30.2321 60.7192 26.5263C60.7192 21.0995 58.9342 16.4425 55.6827 13.1351ZM53.2807 15.4965C55.8242 18.0838 57.3507 21.8479 57.3507 26.5263C57.3507 29.5574 56.2947 33.3912 53.9028 36.4325C51.5567 39.4156 47.8959 41.6842 42.4771 41.6842C40.2856 41.6842 36.5046 40.9199 33.3179 38.6317C30.2178 36.4059 27.6037 32.694 27.6037 26.5263C27.6037 21.8479 29.1302 18.0838 31.6738 15.4965C34.2149 12.9118 37.9011 11.3684 42.4771 11.3684C47.0531 11.3684 50.7395 12.9118 53.2807 15.4965Z" fill="#878787"/>
</g>
</svg>
