<svg width="80" height="80" viewBox="0 0 80 80" fill="none" xmlns="http://www.w3.org/2000/svg">
<g opacity="0.5">
<path fill-rule="evenodd" clip-rule="evenodd" d="M69.9983 32.4898C68.6008 30.7396 66.6938 29.7731 64.6302 29.7731H59.9151C59.471 17.6784 50.7069 8 39.9967 8C29.2865 8 20.5224 17.6784 20.0783 29.7731H15.3632C13.2995 29.7731 11.3926 30.7396 9.99505 32.4898C8.23179 34.6841 7.59179 37.7404 8.25791 40.6792L13.9134 65.6C14.7624 69.3616 17.6881 72 21.0187 72H58.9616C62.2922 72 65.2179 69.3747 66.0669 65.6L71.7355 40.6792C72.4016 37.7404 71.7616 34.6841 69.9983 32.4898ZM39.9967 13.329C47.7812 13.329 54.1551 20.6171 54.573 29.7731H25.4204C25.8383 20.6302 32.2122 13.329 39.9967 13.329ZM60.8816 64.4245L66.5371 39.4906C66.8375 38.1714 67.2032 35.102 64.6302 35.102H15.3632C12.973 35.102 13.1559 38.1714 13.4563 39.4906L19.1118 64.4245C19.3991 65.7045 20.222 66.671 21.0187 66.671H58.9746C59.7714 66.671 60.5942 65.7045 60.8816 64.4245Z" fill="#878787"/>
<path d="M26.7657 40.4049C25.2898 40.4049 24.1012 41.5935 24.1012 43.0694V59.7225C24.1012 61.1984 25.2898 62.3869 26.7657 62.3869C28.2416 62.3869 29.4302 61.1984 29.4302 59.7225V43.0694C29.4432 41.6065 28.2416 40.4049 26.7657 40.4049Z" fill="#878787"/>
<path d="M39.6832 40.4049C38.2072 40.4049 37.0187 41.5935 37.0187 43.0694V59.7225C37.0187 61.1984 38.2072 62.3869 39.6832 62.3869C41.1591 62.3869 42.3477 61.1984 42.3477 59.7225V43.0694C42.3477 41.6065 41.146 40.4049 39.6832 40.4049Z" fill="#878787"/>
<path d="M52.5877 40.4049C51.1118 40.4049 49.9232 41.5935 49.9232 43.0694V59.7225C49.9232 61.1984 51.1118 62.3869 52.5877 62.3869C54.0636 62.3869 55.2522 61.1984 55.2522 59.7225V43.0694C55.2522 41.6065 54.0636 40.4049 52.5877 40.4049Z" fill="#878787"/>
</g>
</svg>
