<svg width="14" height="14" viewBox="0 0 14 14" fill="none" xmlns="http://www.w3.org/2000/svg">
<path fill-rule="evenodd" clip-rule="evenodd" d="M13.3267 2.03961C13.3267 1.34817 12.6126 0.833571 11.1435 0.466292C9.94072 0.165598 8.34967 0 6.66339 0C4.97717 0 3.38605 0.165598 2.18327 0.466292C0.714157 0.833571 0 1.34817 0 2.03961C0 2.29544 0.0980829 2.52703 0.295711 2.73595L4.83071 8.23664V13.5016C4.83071 13.6741 4.91983 13.8342 5.06635 13.9251C5.14656 13.9749 5.23766 14 5.3291 14C5.40472 14 5.48048 13.9828 5.55045 13.9482L8.21351 12.6282C8.38296 12.5442 8.49028 12.3715 8.49055 12.1823L8.49566 8.23697L13.0313 2.73562C13.2288 2.52676 13.3267 2.29538 13.3267 2.03961ZM2.6497 1.38C3.74795 1.13287 5.17334 0.996777 6.66339 0.996777C8.15344 0.996777 9.57889 1.13287 10.677 1.38C11.8898 1.65292 12.2307 1.94624 12.3122 2.03961C12.2306 2.13297 11.8898 2.42629 10.677 2.69921C9.57889 2.94634 8.15337 3.08243 6.66339 3.08243C5.17341 3.08243 3.74795 2.94634 2.6497 2.69927C1.43702 2.42635 1.09606 2.13304 1.01452 2.03967C1.09606 1.94624 1.43702 1.65292 2.6497 1.38ZM7.49922 8.05708C7.49935 7.94159 7.53962 7.82982 7.61305 7.74071L10.985 3.65073C9.80257 3.9273 8.27704 4.07928 6.66339 4.07928C5.04981 4.07928 3.5242 3.9273 2.34176 3.65073L5.71373 7.74071C5.78735 7.82995 5.82756 7.94205 5.82756 8.05775V12.6984L7.49424 11.8723L7.49922 8.05708Z" fill="#202435"/>
</svg>
