<?xml version="1.0" encoding="UTF-8"?>
<svg width="16px" height="16px" viewBox="0 0 16 16" version="1.1" xmlns="http://www.w3.org/2000/svg" xmlns:xlink="http://www.w3.org/1999/xlink">
    <title>xxxhdpi/checkmark-circle-svgrepo-com</title>
    <g id="🚀-CART---CHECKOUT---EXISTING-CUSTOMER" stroke="none" stroke-width="1" fill="none" fill-rule="evenodd" opacity="0.5">
        <g id="checkout-customer-sign-in-enter-login-code" transform="translate(-200.000000, -254.000000)" fill="#212529" fill-rule="nonzero">
            <g id="checkout-section" transform="translate(0.000000, 80.000000)">
                <g id="your-info-card" transform="translate(20.000000, 20.000000)">
                    <g id="Group-3" transform="translate(20.000000, 16.000000)">
                        <g id="input-mobile-number" transform="translate(0.000000, 84.000000)">
                            <g id="checkmark-circle-svgrepo-com" transform="translate(160.000000, 54.000000)">
                                <path d="M8,0 C12.418278,0 16,3.581722 16,8 C16,12.418278 12.418278,16 8,16 C3.581722,16 0,12.418278 0,8 C0,3.581722 3.581722,0 8,0 Z M11.4535534,5.4464466 C11.2713087,5.26420192 10.9833806,5.25205228 10.7870448,5.40999768 L10.7464466,5.4464466 L6.7,9.4928932 L5.2535534,8.0464466 C5.05829124,7.85118448 4.74170876,7.85118448 4.5464466,8.0464466 C4.36420192,8.22869128 4.35205228,8.51661944 4.50999768,8.71295524 L4.5464466,8.7535534 L6.3464466,10.5535534 C6.52869128,10.7357981 6.81661944,10.7479477 7.01295524,10.5900023 L7.0535534,10.5535534 L11.4535534,6.1535534 C11.6488155,5.95829124 11.6488155,5.64170876 11.4535534,5.4464466 Z" id="🎨-Color"></path>
                            </g>
                        </g>
                    </g>
                </g>
            </g>
        </g>
    </g>
</svg>