<?xml version="1.0" encoding="UTF-8"?>
<svg width="12px" height="12px" viewBox="0 0 12 12" version="1.1" xmlns="http://www.w3.org/2000/svg" xmlns:xlink="http://www.w3.org/1999/xlink">
    <title>mdpi/Shape</title>
    <g id="🚀--CHECKOUT---AGENT" stroke="none" stroke-width="1" fill="none" fill-rule="evenodd">
        <g id="Agent-Checkout---Checkout----Order-with-Pamoja-Item" transform="translate(-254.000000, -814.000000)" fill="#878787" fill-rule="nonzero">
            <g id="checkout-section" transform="translate(0.000000, 80.000000)">
                <g id="your-order-card" transform="translate(20.000000, 200.000000)">
                    <g id="Group-6" transform="translate(20.000000, 520.000000)">
                        <g id="search" transform="translate(208.000000, 8.000000)">
                            <g id="search-svgrepo-com" transform="translate(6.000000, 6.000000)">
                                <path d="M11.8584761,11.1447031 L8.41267562,7.69644139 C9.09199057,6.88175572 9.50056404,5.84063173 9.50056404,4.70351759 C9.50056404,2.10932212 7.37155164,0 4.75274331,0 C2.13393498,0 0,2.11178341 0,4.70597887 C0,7.30017434 2.12901241,9.40949646 4.74782074,9.40949646 C5.86032202,9.40949646 6.884217,9.02799713 7.69644139,8.39052405 L11.1545483,11.8486309 C11.3563737,12.0504564 11.6566506,12.0504564 11.8584761,11.8486309 C12.0603015,11.6468055 12.0603015,11.3465286 11.8584761,11.1447031 Z M1.00912727,4.70597887 C1.00912727,2.66803405 2.68772434,1.01158856 4.74782074,1.01158856 C6.80791714,1.01158856 8.4865142,2.66803405 8.4865142,4.70597887 C8.4865142,6.7439237 6.80791714,8.40036919 4.74782074,8.40036919 C2.68772434,8.40036919 1.00912727,6.74146241 1.00912727,4.70597887 Z" id="Shape"></path>
                            </g>
                        </g>
                    </g>
                </g>
            </g>
        </g>
    </g>
</svg>