<?xml version="1.0" encoding="UTF-8"?>
<svg width="60px" height="54px" viewBox="0 0 60 54" version="1.1" xmlns="http://www.w3.org/2000/svg" xmlns:xlink="http://www.w3.org/1999/xlink">
    <title>mdpi/Spinner-1s-200px</title>
    <g id="🚀--CHECKOUT---AGENT" stroke="none" stroke-width="1" fill="none" fill-rule="evenodd">
        <g id="Agent-Checkout---Order-Placement-in-Progress" transform="translate(-130.000000, -218.000000)" fill="#68A315" fill-rule="nonzero">
            <g id="Group-2" transform="translate(32.000000, 218.000000)">
                <g id="Spinner-1s-200px" transform="translate(98.692308, 0.000000)">
                    <g id="Group" transform="translate(25.846154, 0.000000)">
                        <rect id="Rectangle" x="0" y="0" width="6.92307692" height="12.4615385" rx="3.46153846"></rect>
                    </g>
                    <g id="Group" transform="translate(40.846154, 9.013319) rotate(30.000000) translate(-40.846154, -9.013319) translate(37.384615, 2.782549)">
                        <rect id="Rectangle" x="9.09494702e-13" y="-4.54747351e-13" width="6.92307692" height="12.4615385" rx="3.46153846"></rect>
                    </g>
                    <g id="Group" transform="translate(49.292894, 16.615385) rotate(60.000000) translate(-49.292894, -16.615385) translate(45.831355, 10.384615)">
                        <rect id="Rectangle" x="0" y="0" width="6.92307692" height="12.4615385" rx="3.46153846"></rect>
                    </g>
                    <g id="Group" transform="translate(52.384615, 27.000000) rotate(90.000000) translate(-52.384615, -27.000000) translate(48.923077, 20.769231)">
                        <rect id="Rectangle" x="0" y="0" width="6.92307692" height="12.4615385" rx="3.46153846"></rect>
                    </g>
                    <g id="Group" transform="translate(49.292894, 37.384615) rotate(120.000000) translate(-49.292894, -37.384615) translate(45.831355, 31.153846)">
                        <rect id="Rectangle" x="0" y="0" width="6.92307692" height="12.4615385" rx="3.46153846"></rect>
                    </g>
                    <g id="Group" transform="translate(40.846154, 44.986681) rotate(150.000000) translate(-40.846154, -44.986681) translate(37.384615, 38.755912)">
                        <rect id="Rectangle" x="0" y="0" width="6.92307692" height="12.4615385" rx="3.46153846"></rect>
                    </g>
                    <g id="Group" transform="translate(29.307692, 47.769231) rotate(180.000000) translate(-29.307692, -47.769231) translate(25.846154, 41.538462)">
                        <rect id="Rectangle" x="0" y="0" width="6.92307692" height="12.4615385" rx="3.46153846"></rect>
                    </g>
                    <g id="Group" transform="translate(17.769231, 44.986681) rotate(-150.000000) translate(-17.769231, -44.986681) translate(14.307692, 38.755912)">
                        <rect id="Rectangle" x="0" y="0" width="6.92307692" height="12.4615385" rx="3.46153846"></rect>
                    </g>
                    <g id="Group" transform="translate(9.322491, 37.384615) rotate(-120.000000) translate(-9.322491, -37.384615) translate(5.860952, 31.153846)">
                        <rect id="Rectangle" x="0" y="0" width="6.92307692" height="12.4615385" rx="3.46153846"></rect>
                    </g>
                    <g id="Group" transform="translate(6.230769, 27.000000) rotate(-90.000000) translate(-6.230769, -27.000000) translate(2.769231, 20.769231)">
                        <rect id="Rectangle" x="0" y="0" width="6.92307692" height="12.4615385" rx="3.46153846"></rect>
                    </g>
                    <g id="Group" transform="translate(9.322491, 16.615385) rotate(-60.000000) translate(-9.322491, -16.615385) translate(5.860952, 10.384615)">
                        <rect id="Rectangle" x="0" y="0" width="6.92307692" height="12.4615385" rx="3.46153846"></rect>
                    </g>
                    <g id="Group" transform="translate(17.769231, 9.013319) rotate(-30.000000) translate(-17.769231, -9.013319) translate(14.307692, 2.782549)">
                        <rect id="Rectangle" x="9.09494702e-13" y="-4.54747351e-13" width="6.92307692" height="12.4615385" rx="3.46153846"></rect>
                    </g>
                </g>
            </g>
        </g>
    </g>
</svg>